<?xml version="1.0" encoding="UTF-8"?>
<!DOCTYPE svg PUBLIC "-//W3C//DTD SVG 1.1//EN" "http://www.w3.org/Graphics/SVG/1.1/DTD/svg11.dtd">
<svg
	xmlns="http://www.w3.org/2000/svg"
	version="1.1"
	viewBox="0 0 512 512"
	style="
		shape-rendering: geometricPrecision;
		text-rendering: geometricPrecision;
		image-rendering: optimizeQuality;
		fill-rule: evenodd;
		clip-rule: evenodd;
	"
	xmlns:xlink="http://www.w3.org/1999/xlink"
>
	<g>
		<path
			style="opacity: 0.98"
			fill="#000000"
			d="M 232.5,-0.5 C 247.833,-0.5 263.167,-0.5 278.5,-0.5C 378.271,12.4486 449.438,64.4486 492,155.5C 502.136,180.379 508.636,206.046 511.5,232.5C 511.5,247.833 511.5,263.167 511.5,278.5C 498.551,378.271 446.551,449.438 355.5,492C 330.622,502.136 304.955,508.636 278.5,511.5C 263.167,511.5 247.833,511.5 232.5,511.5C 132.727,498.549 61.5605,446.549 19,355.5C 8.86392,330.621 2.36392,304.954 -0.5,278.5C -0.5,263.167 -0.5,247.833 -0.5,232.5C 12.4486,132.729 64.4486,61.5622 155.5,19C 180.379,8.86392 206.046,2.36392 232.5,-0.5 Z"
		/>
	</g>
	<g>
		<path
			style="opacity: 1"
			fill="#fed44e"
			d="M 236.5,31.5 C 331.433,28.2033 403.266,66.87 452,147.5C 488.279,218.646 488.612,289.98 453,361.5C 417.863,422.679 365.696,460.845 296.5,476C 205.712,488.974 131.879,459.807 75,388.5C 29.4212,322.526 19.7545,251.526 46,175.5C 74.1053,107.394 123.272,62.2276 193.5,40C 207.757,36.0724 222.091,33.2391 236.5,31.5 Z"
		/>
	</g>
	<g>
		<path
			style="opacity: 1"
			fill="#030201"
			d="M 152.5,148.5 C 183.155,148.003 202.988,162.336 212,191.5C 213.098,198.385 212.431,205.051 210,211.5C 200.619,221.102 191.619,220.769 183,210.5C 181.131,205.682 180.131,200.682 180,195.5C 173.516,182.341 163.35,178.175 149.5,183C 144.555,185.946 141.055,190.112 139,195.5C 139.464,203.79 136.631,210.624 130.5,216C 119.571,220.451 111.737,217.284 107,206.5C 106.65,175.015 121.816,155.682 152.5,148.5 Z"
		/>
	</g>
	<g>
		<path
			style="opacity: 1"
			fill="#030201"
			d="M 344.5,148.5 C 375.155,148.003 394.988,162.336 404,191.5C 405.098,198.385 404.431,205.051 402,211.5C 392.619,221.102 383.619,220.769 375,210.5C 373.131,205.682 372.131,200.682 372,195.5C 365.516,182.341 355.35,178.175 341.5,183C 336.555,185.946 333.055,190.112 331,195.5C 331.464,203.79 328.631,210.624 322.5,216C 311.571,220.451 303.737,217.284 299,206.5C 298.65,175.015 313.816,155.682 344.5,148.5 Z"
		/>
	</g>
	<g>
		<path
			style="opacity: 1"
			fill="#020100"
			d="M 276.5,312.5 C 276.5,332.167 276.5,351.833 276.5,371.5C 277.791,371.737 278.791,371.404 279.5,370.5C 322.111,362.05 355.111,339.55 378.5,303C 389.583,296.806 398.083,299.306 404,310.5C 404.767,314.594 404.434,318.594 403,322.5C 363.018,381.571 307.185,408.738 235.5,404C 181.626,395.829 139.459,369.329 109,324.5C 103.203,311.016 107.37,302.683 121.5,299.5C 126.804,299.736 131.304,301.736 135,305.5C 141.807,316.088 149.807,325.755 159,334.5C 155.035,308.806 162.202,286.973 180.5,269C 204.866,251.394 229.533,251.06 254.5,268C 268.666,279.498 275.999,294.332 276.5,312.5 Z"
		/>
	</g>
	<g>
		<path
			style="opacity: 1"
			fill="#e33834"
			d="M 211.5,287.5 C 227.131,285.729 237.964,292.063 244,306.5C 244.5,328.497 244.667,350.497 244.5,372.5C 225.974,371.046 208.474,366.046 192,357.5C 191.333,340.833 191.333,324.167 192,307.5C 195.351,297.65 201.851,290.983 211.5,287.5 Z"
		/>
	</g>
	<g>
		<path
			style="opacity: 1"
			fill="#a78b34"
			d="M 276.5,312.5 C 276.837,332.022 277.837,351.355 279.5,370.5C 278.791,371.404 277.791,371.737 276.5,371.5C 276.5,351.833 276.5,332.167 276.5,312.5 Z"
		/>
	</g>
</svg>
